HIERARCHY
ROOT hip
{
	OFFSET 0.000000 0.000000 0.000000 
	CHANNELS 6 Xposition Yposition Zposition Xrotation Zrotation Yrotation
	JOINT abdomen
	{
		OFFSET 0.000000 3.402643 0.000000 
		CHANNELS 3 Xrotation Zrotation Yrotation
		JOINT chest
		{
			OFFSET 0.000000 8.438565 -0.680529 
			CHANNELS 3 Xrotation Zrotation Yrotation
			JOINT neck
			{
				OFFSET 0.000000 10.207942 -0.272212 
				CHANNELS 3 Xrotation Zrotation Yrotation
				JOINT head
				{
					OFFSET 0.000000 3.130431 0.000000 
					CHANNELS 3 Xrotation Zrotation Yrotation
					End Site
					{
						OFFSET 0.000000 3.130435 0.000000 
					}
				}
			}
			JOINT lCollar
			{
				OFFSET 3.470700 6.669187 -0.816635 
				CHANNELS 3 Yrotation Zrotation Xrotation
				JOINT lShldr
				{
					OFFSET 3.198488 0.000000 0.000000 
					CHANNELS 3 Zrotation Yrotation Xrotation
					JOINT lForeArm
					{
						OFFSET 10.139888 0.000000 0.000000 
						CHANNELS 3 Yrotation Zrotation Xrotation
						JOINT lHand
						{
							OFFSET 8.370511 0.000000 0.000000 
							CHANNELS 3 Zrotation Yrotation Xrotation
							End Site
							{
								OFFSET 4.083176 0.000000 0.000000 
							}
						}
					}
				}
			}
			JOINT rCollar
			{
				OFFSET -3.470700 6.669187 -0.816635 
				CHANNELS 3 Yrotation Zrotation Xrotation
				JOINT rShldr
				{
					OFFSET -3.198488 0.000000 0.000000 
					CHANNELS 3 Zrotation Yrotation Xrotation
					JOINT rForeArm
					{
						OFFSET -10.139888 0.000000 0.000000 
						CHANNELS 3 Yrotation Zrotation Xrotation
						JOINT rHand
						{
							OFFSET -8.370511 0.000000 0.000000 
							CHANNELS 3 Zrotation Yrotation Xrotation
							End Site
							{
								OFFSET -4.083176 0.000000 0.000000 
							}
						}
					}
				}
			}
		}
	}
	JOINT lThigh
	{
		OFFSET 5.308129 -1.633274 1.361059 
		CHANNELS 3 Xrotation Zrotation Yrotation
		JOINT lShin
		{
			OFFSET -2.041588 -20.007561 0.000000 
			CHANNELS 3 Xrotation Zrotation Yrotation
			JOINT lFoot
			{
				OFFSET 0.000000 -19.190928 -1.224953 
				CHANNELS 3 Xrotation Yrotation Zrotation
				End Site
				{
					OFFSET 0.000000 -2.449906 4.627600 
				}
			}
		}
	}
	JOINT rThigh
	{
		OFFSET -5.308129 -1.633274 1.361059 
		CHANNELS 3 Xrotation Zrotation Yrotation
		JOINT rShin
		{
			OFFSET 2.041588 -20.007561 0.000000 
			CHANNELS 3 Xrotation Zrotation Yrotation
			JOINT rFoot
			{
				OFFSET 0.000000 -19.190928 -1.224953 
				CHANNELS 3 Xrotation Yrotation Zrotation
				End Site
				{
					OFFSET 0.000000 -2.449906 4.627600 
				}
			}
		}
	}
}
MOTION
Frames: 14
Frame Time: 0.016667
-31.478518 38.558769 -15.490835 13.422200 1.424850 -16.505600 -19.105600 -1.370940 -4.774490 20.026899 -5.400160 -2.411310 -18.633900 -4.186630 13.905000 0.314565 1.089230 6.210160 2.000000 -2.000000 0.000000 -76.048203 -22.860901 -127.904999 64.326698 -0.274081 0.123272 0.045704 -0.018500 -143.542999 -2.000000 2.000000 0.000000 85.551003 -2.373180 -163.345001 -70.088402 0.261411 0.128551 -0.082894 0.075222 -164.880997 -15.986195 -3.320469 25.757023 56.823822 1.224830 3.877251 -9.659830 -6.784268 -1.322611 -46.407230 -0.219784 15.771151 50.103436 -1.588639 -3.564993 -15.572796 -3.415423 -1.880986 
-31.672976 38.341530 -14.621339 13.711000 2.144200 -17.171900 -18.660601 -1.295100 -4.961920 20.272100 -5.576100 -2.482250 -18.753500 -4.685900 14.529100 0.294728 0.787150 6.444230 2.000000 -2.000000 0.000000 -74.586403 -22.384800 -129.526993 60.137199 -0.282924 0.118616 0.046064 -0.021377 -144.578003 -2.000000 2.000000 0.000000 85.308701 -2.024640 -166.274002 -64.815002 0.273028 0.123726 -0.081348 0.072234 -163.679993 -17.784227 -1.105879 27.597223 62.053661 0.850827 4.108511 -9.081527 -4.820045 -0.632554 -46.175903 -1.287474 16.464727 50.181000 -1.613062 -3.573534 -17.005135 -2.302096 -1.733370 
-31.847101 38.037422 -13.738696 13.973000 2.871580 -17.840401 -18.245701 -1.258260 -5.113860 20.468300 -5.800770 -2.549710 -18.832399 -5.152080 15.092000 0.274848 0.524063 6.675970 2.000000 -2.000000 0.000000 -72.617996 -21.168200 -132.162003 56.396999 -0.290513 0.113924 0.046620 -0.025164 -145.945007 -2.000000 2.000000 0.000000 84.841400 -1.568610 -169.192993 -59.521999 0.284193 0.117831 -0.080126 0.069758 -162.692993 -19.339857 1.279050 29.077717 66.978905 0.470823 4.310995 -8.787305 -3.530432 -0.141813 -46.138153 -2.581438 15.947901 50.553711 -1.586826 -3.579761 -20.036013 -0.704062 -1.337390 
-31.976177 37.677441 -12.845383 14.287900 3.681650 -18.847700 -17.886900 -1.239030 -5.034030 20.546801 -6.044920 -2.498970 -19.038799 -5.677050 15.604800 0.186426 0.202645 6.872420 2.000000 -2.000000 0.000000 -70.386902 -19.250299 -135.710007 52.900902 -0.297316 0.109099 0.047487 -0.030121 -147.742004 -2.000000 2.000000 0.000000 -95.938698 -178.682999 7.721490 -54.434101 0.294369 0.111217 -0.078650 0.066614 -161.453003 -20.935047 3.841663 30.404419 71.638321 0.086323 4.456076 -8.329859 -3.821556 -0.026029 -46.610561 -3.876414 14.570938 51.484539 -1.571267 -3.622284 -23.471474 0.753768 -0.778230 
-32.048634 37.300446 -11.956339 14.735000 4.552890 -20.405500 -17.557199 -1.157120 -4.646950 20.527201 -6.269530 -2.291720 -19.802500 -6.454330 16.135401 0.391320 0.104808 7.006250 2.000000 -2.000000 0.000000 -68.058800 -16.953199 -140.037003 49.287601 -0.304024 0.103686 0.049020 -0.037259 -150.348999 -2.000000 2.000000 0.000000 -97.070702 -178.612000 4.488890 -49.727001 0.303227 0.104316 -0.076984 0.062836 -159.977997 -22.534395 6.593828 31.622841 75.681587 -0.282264 4.581477 -7.640918 -5.715438 -0.206211 -47.641338 -4.961926 13.047277 52.731911 -1.476185 -3.684348 -26.104706 2.144447 -0.040265 
-32.070992 36.919846 -11.082908 15.359600 5.274540 -22.235001 -17.074800 -1.032080 -4.088760 20.645100 -6.621090 -2.003450 -20.356001 -7.080010 16.543400 0.273493 -0.197053 7.103860 2.000000 -2.000000 0.000000 -65.555397 -14.599600 -145.110001 45.508301 -0.310661 0.097583 0.051552 -0.046601 -153.806000 -2.000000 2.000000 0.000000 -98.476501 -178.307999 1.196850 -45.420399 0.310810 0.097384 -0.075607 0.059499 -158.688995 -24.293926 9.800070 32.411709 79.430969 -0.622821 4.675909 -7.309527 -8.660490 -0.524822 -49.180656 -5.691741 11.673146 54.372494 -1.354755 -3.785259 -27.815544 3.805733 0.927819 
-32.061440 36.524864 -10.210085 16.247700 5.805180 -23.643400 -16.432899 -0.867945 -3.593320 21.117500 -7.040680 -1.749120 -21.092100 -7.662350 16.797100 0.087273 -0.469422 7.113480 2.000000 -2.000000 0.000000 -62.904800 -12.344500 -150.335999 41.728901 -0.316881 0.091057 0.065529 -0.058712 -158.386993 -2.000000 2.000000 0.000000 -100.205002 -177.602997 -2.066680 -41.455502 0.317314 0.090516 -0.074928 0.067534 -158.024994 -26.403124 13.225285 32.148911 82.719627 -0.922195 4.732958 -7.340426 -11.480211 -0.768104 -50.880722 -6.421461 10.270056 56.071293 -1.220825 -3.872833 -29.245367 5.287528 1.845680 
-32.033695 36.129322 -9.316997 17.201401 6.430140 -24.185600 -15.717900 -0.739728 -3.249400 21.846600 -7.371200 -1.592440 -21.856300 -8.219470 16.942301 -0.128291 -0.722096 7.074980 2.000000 -2.000000 0.000000 -60.008400 -10.117400 -154.716003 38.076599 -0.322470 0.084373 0.073463 -0.075850 -165.134995 -2.000000 2.000000 0.000000 -102.226997 -176.184006 -5.038400 -37.754299 0.322943 0.083712 -0.074663 0.066844 -157.761993 -28.968536 16.240946 30.593315 85.625748 -1.198867 4.743900 -7.609034 -13.057032 -0.850963 -52.322727 -7.651886 8.958646 57.739693 -1.109832 -3.957614 -30.949869 5.833181 2.306829 
-31.984152 35.789612 -8.390003 18.005699 7.378450 -24.142700 -14.912600 -0.794003 -2.976860 22.792999 -7.582180 -1.507450 -22.547501 -8.657230 17.023800 -0.314465 -0.916295 7.013920 2.000000 -2.000000 0.000000 -56.758999 -7.800810 -158.205002 34.502300 -0.327517 0.077500 -179.925003 -179.906006 6.994340 -2.000000 2.000000 0.000000 -104.161003 -174.216995 -7.572390 -34.023800 0.328160 0.076502 -0.063808 0.054129 -156.639008 -31.802622 18.527952 28.338400 87.894829 -1.395617 4.768021 -7.819312 -13.162287 -0.655680 -53.468098 -9.411571 8.170944 59.093281 -1.026585 -4.016877 -32.587605 5.527045 2.226404 
-31.894056 35.536961 -7.431736 18.872000 8.397510 -23.879700 -14.147200 -0.895139 -2.636970 23.700500 -7.732630 -1.409840 -23.169701 -8.997250 16.917000 -0.480899 -1.032570 6.879260 2.000000 -2.000000 0.000000 -53.332802 -4.965030 -160.897003 31.152700 -0.331849 0.070785 -179.912003 -179.891006 0.109582 -2.000000 2.000000 0.000000 74.091301 -8.375480 170.322006 -30.195601 0.333014 0.068766 -0.061151 0.046050 -153.600998 -34.964699 20.554825 25.704847 89.555267 -1.538177 4.777113 -7.905000 -12.393171 -0.275980 -54.332169 -11.208283 7.772118 60.034267 -0.983407 -4.052558 -33.982216 4.909092 1.854622 
-31.751276 35.361938 -6.463876 20.128799 9.124430 -23.381300 -13.655800 -0.778746 -2.215390 24.261200 -7.611200 -1.224610 -23.900900 -9.290710 16.602200 -0.735127 -1.109540 6.646150 2.000000 -2.000000 0.000000 -50.228401 -1.268410 -162.906998 28.232700 -0.335300 0.064734 -179.903000 -179.871994 -4.568140 -2.000000 2.000000 0.000000 72.392998 -11.926900 168.944000 -26.552999 0.337144 0.061119 -0.058051 0.034032 -149.167999 -38.740871 22.788296 22.660732 90.685249 -1.627219 4.787350 -8.091369 -11.222827 0.174635 -54.989021 -12.682420 7.377250 60.416119 -0.963871 -4.055538 -35.084389 4.284286 1.356567 
-31.557604 35.253872 -5.490397 21.516701 9.443480 -22.596600 -13.202200 -0.544956 -1.812200 24.701900 -7.324750 -1.018340 -24.677700 -9.453420 16.343399 -0.989079 -1.108590 6.455760 2.000000 -2.000000 0.000000 -47.426800 3.044360 -164.498993 25.810801 -0.337925 0.059586 -179.897003 -179.876999 -7.204880 -2.000000 2.000000 0.000000 70.930901 -16.224199 169.089996 -23.418200 0.340303 0.054340 -0.055892 0.021836 -144.744003 -42.998970 25.114985 19.275064 91.290840 -1.621231 4.747592 -8.508863 -9.891529 0.650899 -55.183685 -13.860602 6.860550 60.278107 -0.991132 -4.047684 -35.925453 3.613442 0.814687 
-31.316301 35.225899 -4.483218 22.576099 9.410530 -21.550100 -12.482800 -0.380388 -1.510210 25.348600 -7.026380 -0.890630 -25.330900 -9.362960 16.065100 -1.174120 -0.962003 6.299630 2.000000 -2.000000 0.000000 -44.762501 7.622070 -165.533997 23.886999 -0.339854 0.055421 0.106114 -0.126282 171.164001 -2.000000 2.000000 0.000000 69.910103 -20.692101 171.227997 -20.742399 0.342702 0.048424 -0.054764 0.010821 -140.789001 -47.263905 26.978113 15.738450 91.131332 -1.561450 4.737772 -9.332800 -8.666521 1.014510 -54.379917 -15.060858 6.212826 59.570705 -1.061173 -4.007390 -36.494282 2.966676 0.172140 
-31.028379 35.280155 -3.425700 23.377399 9.094670 -20.114401 -11.654500 -0.212225 -1.335420 26.111000 -6.590280 -0.815487 -25.704000 -9.151690 15.626400 -1.280540 -0.660174 6.107500 2.000000 -2.000000 0.000000 -42.313301 12.593200 -165.369003 22.607700 -0.341059 0.052617 0.110145 -0.129339 169.358002 -2.000000 2.000000 0.000000 -110.825996 -154.639999 -4.539590 -18.711100 0.344338 0.043862 -0.054398 -0.000192 -136.852997 -51.757874 28.131540 12.058543 90.232864 -1.412240 4.695521 -10.671584 -7.541385 1.250400 -52.851585 -16.339602 5.287932 58.488213 -1.192857 -3.925844 -36.658672 2.218011 -0.538904 
